<svg width="24" height="24" viewBox="0 0 24 24" fill="none" xmlns="http://www.w3.org/2000/svg">
<path d="M1.08579 20.0858C0.304738 20.8668 0.304738 22.1332 1.08579 22.9142C1.86684 23.6953 3.13316 23.6953 3.91421 22.9142L1.08579 20.0858ZM24 2C24 0.89543 23.1046 -9.92107e-07 22 -1.4917e-07L4 1.03711e-07C2.89543 -5.70639e-07 2 0.89543 2 2C2 3.10457 2.89543 4 4 4L20 4L20 20C20 21.1046 20.8954 22 22 22C23.1046 22 24 21.1046 24 20L24 2ZM3.91421 22.9142L23.4142 3.41421L20.5858 0.585786L1.08579 20.0858L3.91421 22.9142Z" fill="white"/>
</svg>
