<svg width="100" height="100" viewBox="0 0 100 100" fill="none" xmlns="http://www.w3.org/2000/svg">
<g clip-path="url(#clip0_24_28)">
<path d="M93 110L91.2489 108.531C74.3202 94.3338 66.6246 71.9426 71.2483 50.3377V50.3377C71.2755 50.2109 71.1372 50.1134 71.0268 50.1816L61.9794 55.7749C43.4622 67.2226 29.3697 84.6062 22 105.091V105.091" stroke="#A72608" stroke-width="11" stroke-linecap="round"/>
<path d="M11 -14L12.4971 -12.7206C29.8722 2.12795 37.7574 25.2761 33.0596 47.6436V47.6436C33.0316 47.777 33.1776 47.8785 33.2929 47.8059L42.1246 42.2423C61.1224 30.2746 75.5248 12.245 83 -8.92727V-8.92727" stroke="#A72608" stroke-width="11" stroke-linecap="round"/>
<path d="M9 -11L10.9565 -9.37316C28.5025 5.21619 36.4849 28.349 31.67 50.6543V50.6543C31.642 50.7844 31.7835 50.8847 31.8969 50.8152L41.4871 44.9371C60.684 33.1708 75.3197 15.2382 83 -5.92727V-5.92727" stroke="#2B2D42" stroke-width="11" stroke-linecap="round"/>
<path d="M94 105L92.2489 103.531C75.3202 89.3338 67.6246 66.9426 72.2483 45.3377V45.3377C72.2755 45.2109 72.1372 45.1134 72.0268 45.1816L62.9795 50.7749C44.4622 62.2226 30.3697 79.6062 23 100.091V100.091" stroke="#2B2D42" stroke-width="11" stroke-linecap="round"/>
</g>
<defs>
<clipPath id="clip0_24_28">
<rect width="100" height="100" fill="white"/>
</clipPath>
</defs>
</svg>
