<svg width="100" height="100" viewBox="0 0 100 100" fill="none" xmlns="http://www.w3.org/2000/svg">
<g clip-path="url(#clip0_24_53)">
<path d="M91 112L89.2489 110.531C72.3202 96.3338 64.6246 73.9426 69.2483 52.3377V52.3377C69.2755 52.2109 69.1372 52.1134 69.0268 52.1816L59.9794 57.7749C41.4622 69.2226 27.3697 86.6062 20 107.091V107.091" stroke="#06D6A0" stroke-width="11" stroke-linecap="round"/>
<path d="M9 -12L10.4971 -10.7206C27.8722 4.12795 35.7574 27.2761 31.0596 49.6436V49.6436C31.0316 49.777 31.1776 49.8785 31.2929 49.8059L40.1246 44.2423C59.1224 32.2746 73.5248 14.245 81 -6.92727V-6.92727" stroke="#06D6A0" stroke-width="11" stroke-linecap="round"/>
<path d="M7 -9L8.95654 -7.37316C26.5025 7.21619 34.4849 30.349 29.67 52.6543V52.6543C29.642 52.7844 29.7835 52.8847 29.8969 52.8152L39.4871 46.9371C58.684 35.1708 73.3197 17.2382 81 -3.92727V-3.92727" stroke="white" stroke-width="11" stroke-linecap="round"/>
<path d="M92 107L90.2489 105.531C73.3202 91.3338 65.6246 68.9426 70.2483 47.3377V47.3377C70.2755 47.2109 70.1372 47.1134 70.0268 47.1816L60.9794 52.7749C42.4622 64.2226 28.3697 81.6062 21 102.091V102.091" stroke="white" stroke-width="11" stroke-linecap="round"/>
</g>
<defs>
<clipPath id="clip0_24_53">
<rect width="100" height="100" fill="white"/>
</clipPath>
</defs>
</svg>
