<svg width="4959" height="4231" viewBox="0 0 4959 4231" fill="none" xmlns="http://www.w3.org/2000/svg">
<path d="M108 22L285.595 519.205C349.706 698.691 519.723 818.5 710.315 818.5H1387.94C1620.23 818.5 1814.53 994.946 1836.85 1226.17L1887.94 1755.41C1906.26 1945.24 2042.01 2103.03 2226.98 2149.49L3120.58 2373.95C3284.48 2415.12 3411.6 2544.45 3449.95 2709.03L3621.08 3443.55C3656.74 3596.62 3769.53 3720.09 3918.77 3769.42L4938.5 4106.5" stroke="#A72608" stroke-opacity="0.05" stroke-width="130"/>
<path d="M62 84L239.595 581.205C303.706 760.691 473.723 880.5 664.315 880.5H1341.94C1574.23 880.5 1768.53 1056.95 1790.85 1288.17L1841.94 1817.41C1860.26 2007.24 1996.01 2165.03 2180.98 2211.49L3074.58 2435.95C3238.48 2477.12 3365.6 2606.45 3403.95 2771.03L3575.08 3505.55C3610.74 3658.62 3723.53 3782.09 3872.77 3831.42L4892.5 4168.5" stroke="#A72608" stroke-opacity="0.05" stroke-width="130"/>
</svg>
